<svg width="358" height="104" viewBox="0 0 358 104" fill="none" xmlns="http://www.w3.org/2000/svg">
<path d="M82.8047 46.3359V51H64.6875V46.3359H82.8047ZM66.3516 16.875V51H60.4688V16.875H66.3516ZM80.4375 31.125V35.7188H64.6875V31.125H80.4375ZM82.6875 16.875V21.5625H64.6875V16.875H82.6875ZM107.766 39.8906H113.625C113.438 42.125 112.812 44.1172 111.75 45.8672C110.688 47.6016 109.195 48.9688 107.273 49.9688C105.352 50.9688 103.016 51.4688 100.266 51.4688C98.1562 51.4688 96.2578 51.0938 94.5703 50.3438C92.8828 49.5781 91.4375 48.5 90.2344 47.1094C89.0312 45.7031 88.1094 44.0078 87.4688 42.0234C86.8438 40.0391 86.5312 37.8203 86.5312 35.3672V32.5312C86.5312 30.0781 86.8516 27.8594 87.4922 25.875C88.1484 23.8906 89.0859 22.1953 90.3047 20.7891C91.5234 19.3672 92.9844 18.2812 94.6875 17.5312C96.4062 16.7812 98.3359 16.4062 100.477 16.4062C103.195 16.4062 105.492 16.9062 107.367 17.9062C109.242 18.9062 110.695 20.2891 111.727 22.0547C112.773 23.8203 113.414 25.8438 113.648 28.125H107.789C107.633 26.6562 107.289 25.3984 106.758 24.3516C106.242 23.3047 105.477 22.5078 104.461 21.9609C103.445 21.3984 102.117 21.1172 100.477 21.1172C99.1328 21.1172 97.9609 21.3672 96.9609 21.8672C95.9609 22.3672 95.125 23.1016 94.4531 24.0703C93.7812 25.0391 93.2734 26.2344 92.9297 27.6562C92.6016 29.0625 92.4375 30.6719 92.4375 32.4844V35.3672C92.4375 37.0859 92.5859 38.6484 92.8828 40.0547C93.1953 41.4453 93.6641 42.6406 94.2891 43.6406C94.9297 44.6406 95.7422 45.4141 96.7266 45.9609C97.7109 46.5078 98.8906 46.7812 100.266 46.7812C101.938 46.7812 103.289 46.5156 104.32 45.9844C105.367 45.4531 106.156 44.6797 106.688 43.6641C107.234 42.6328 107.594 41.375 107.766 39.8906ZM146.18 33V34.875C146.18 37.4531 145.844 39.7656 145.172 41.8125C144.5 43.8594 143.539 45.6016 142.289 47.0391C141.055 48.4766 139.57 49.5781 137.836 50.3438C136.102 51.0938 134.18 51.4688 132.07 51.4688C129.977 51.4688 128.062 51.0938 126.328 50.3438C124.609 49.5781 123.117 48.4766 121.852 47.0391C120.586 45.6016 119.602 43.8594 118.898 41.8125C118.211 39.7656 117.867 37.4531 117.867 34.875V33C117.867 30.4219 118.211 28.1172 118.898 26.0859C119.586 24.0391 120.555 22.2969 121.805 20.8594C123.07 19.4062 124.562 18.3047 126.281 17.5547C128.016 16.7891 129.93 16.4062 132.023 16.4062C134.133 16.4062 136.055 16.7891 137.789 17.5547C139.523 18.3047 141.016 19.4062 142.266 20.8594C143.516 22.2969 144.477 24.0391 145.148 26.0859C145.836 28.1172 146.18 30.4219 146.18 33ZM140.297 34.875V32.9531C140.297 31.0469 140.109 29.3672 139.734 27.9141C139.375 26.4453 138.836 25.2188 138.117 24.2344C137.414 23.2344 136.547 22.4844 135.516 21.9844C134.484 21.4688 133.32 21.2109 132.023 21.2109C130.727 21.2109 129.57 21.4688 128.555 21.9844C127.539 22.4844 126.672 23.2344 125.953 24.2344C125.25 25.2188 124.711 26.4453 124.336 27.9141C123.961 29.3672 123.773 31.0469 123.773 32.9531V34.875C123.773 36.7812 123.961 38.4688 124.336 39.9375C124.711 41.4062 125.258 42.6484 125.977 43.6641C126.711 44.6641 127.586 45.4219 128.602 45.9375C129.617 46.4375 130.773 46.6875 132.07 46.6875C133.383 46.6875 134.547 46.4375 135.562 45.9375C136.578 45.4219 137.438 44.6641 138.141 43.6641C138.844 42.6484 139.375 41.4062 139.734 39.9375C140.109 38.4688 140.297 36.7812 140.297 34.875Z" fill="#6DE917"/>
<path d="M178.266 33.5625V46.5938C177.781 47.2344 177.023 47.9375 175.992 48.7031C174.977 49.4531 173.625 50.1016 171.938 50.6484C170.25 51.1953 168.148 51.4688 165.633 51.4688C163.492 51.4688 161.531 51.1094 159.75 50.3906C157.969 49.6562 156.43 48.5859 155.133 47.1797C153.852 45.7734 152.859 44.0625 152.156 42.0469C151.453 40.0156 151.102 37.7031 151.102 35.1094V32.7422C151.102 30.1641 151.422 27.8672 152.062 25.8516C152.719 23.8203 153.656 22.1016 154.875 20.6953C156.094 19.2891 157.562 18.2266 159.281 17.5078C161.016 16.7734 162.977 16.4062 165.164 16.4062C167.961 16.4062 170.273 16.875 172.102 17.8125C173.945 18.7344 175.367 20.0156 176.367 21.6562C177.367 23.2969 178 25.1719 178.266 27.2812H172.5C172.312 26.0938 171.945 25.0312 171.398 24.0938C170.867 23.1562 170.102 22.4219 169.102 21.8906C168.117 21.3438 166.836 21.0703 165.258 21.0703C163.898 21.0703 162.703 21.3281 161.672 21.8438C160.641 22.3594 159.781 23.1172 159.094 24.1172C158.422 25.1172 157.914 26.3359 157.57 27.7734C157.227 29.2109 157.055 30.8516 157.055 32.6953V35.1094C157.055 36.9844 157.25 38.6484 157.641 40.1016C158.047 41.5547 158.625 42.7812 159.375 43.7812C160.141 44.7812 161.07 45.5391 162.164 46.0547C163.258 46.5547 164.492 46.8047 165.867 46.8047C167.211 46.8047 168.312 46.6953 169.172 46.4766C170.031 46.2422 170.711 45.9688 171.211 45.6562C171.727 45.3281 172.125 45.0156 172.406 44.7188V37.9453H165.305V33.5625H178.266ZM184.781 16.875H196.852C199.445 16.875 201.656 17.2656 203.484 18.0469C205.312 18.8281 206.711 19.9844 207.68 21.5156C208.664 23.0312 209.156 24.9062 209.156 27.1406C209.156 28.8438 208.844 30.3438 208.219 31.6406C207.594 32.9375 206.711 34.0312 205.57 34.9219C204.43 35.7969 203.07 36.4766 201.492 36.9609L199.711 37.8281H188.859L188.812 33.1641H196.945C198.352 33.1641 199.523 32.9141 200.461 32.4141C201.398 31.9141 202.102 31.2344 202.57 30.375C203.055 29.5 203.297 28.5156 203.297 27.4219C203.297 26.2344 203.062 25.2031 202.594 24.3281C202.141 23.4375 201.438 22.7578 200.484 22.2891C199.531 21.8047 198.32 21.5625 196.852 21.5625H190.664V51H184.781V16.875ZM204.258 51L196.242 35.6719L202.406 35.6484L210.539 50.6953V51H204.258ZM237.352 46.3359V51H219.234V46.3359H237.352ZM220.898 16.875V51H215.016V16.875H220.898ZM234.984 31.125V35.7188H219.234V31.125H234.984ZM237.234 16.875V21.5625H219.234V16.875H237.234ZM264.492 46.3359V51H246.375V46.3359H264.492ZM248.039 16.875V51H242.156V16.875H248.039ZM262.125 31.125V35.7188H246.375V31.125H262.125ZM264.375 16.875V21.5625H246.375V16.875H264.375ZM296.367 16.875V51H290.484L275.18 26.5547V51H269.297V16.875H275.18L290.531 41.3672V16.875H296.367Z" fill="#7AE0F0"/>
<path d="M10.7109 94.6055C10.7109 94.2539 10.6562 93.9414 10.5469 93.668C10.4453 93.3945 10.2617 93.1445 9.99609 92.918C9.73047 92.6914 9.35547 92.4727 8.87109 92.2617C8.39453 92.043 7.78516 91.8203 7.04297 91.5938C6.23047 91.3438 5.48047 91.0664 4.79297 90.7617C4.11328 90.4492 3.51953 90.0898 3.01172 89.6836C2.50391 89.2695 2.10938 88.7969 1.82812 88.2656C1.54688 87.7266 1.40625 87.1055 1.40625 86.4023C1.40625 85.707 1.55078 85.0742 1.83984 84.5039C2.13672 83.9336 2.55469 83.4414 3.09375 83.0273C3.64062 82.6055 4.28516 82.2812 5.02734 82.0547C5.76953 81.8203 6.58984 81.7031 7.48828 81.7031C8.75391 81.7031 9.84375 81.9375 10.7578 82.4062C11.6797 82.875 12.3867 83.5039 12.8789 84.293C13.3789 85.082 13.6289 85.9531 13.6289 86.9062H10.7109C10.7109 86.3438 10.5898 85.8477 10.3477 85.418C10.1133 84.9805 9.75391 84.6367 9.26953 84.3867C8.79297 84.1367 8.1875 84.0117 7.45312 84.0117C6.75781 84.0117 6.17969 84.1172 5.71875 84.3281C5.25781 84.5391 4.91406 84.8242 4.6875 85.1836C4.46094 85.543 4.34766 85.9492 4.34766 86.4023C4.34766 86.7227 4.42188 87.0156 4.57031 87.2812C4.71875 87.5391 4.94531 87.7812 5.25 88.0078C5.55469 88.2266 5.9375 88.4336 6.39844 88.6289C6.85938 88.8242 7.40234 89.0117 8.02734 89.1914C8.97266 89.4727 9.79688 89.7852 10.5 90.1289C11.2031 90.4648 11.7891 90.8477 12.2578 91.2773C12.7266 91.707 13.0781 92.1953 13.3125 92.7422C13.5469 93.2812 13.6641 93.8945 13.6641 94.582C13.6641 95.3008 13.5195 95.9492 13.2305 96.5273C12.9414 97.0977 12.5273 97.5859 11.9883 97.9922C11.457 98.3906 10.8164 98.6992 10.0664 98.918C9.32422 99.1289 8.49609 99.2344 7.58203 99.2344C6.76172 99.2344 5.95312 99.125 5.15625 98.9062C4.36719 98.6875 3.64844 98.3555 3 97.9102C2.35156 97.457 1.83594 96.8945 1.45312 96.2227C1.07031 95.543 0.878906 94.75 0.878906 93.8438H3.82031C3.82031 94.3984 3.91406 94.8711 4.10156 95.2617C4.29688 95.6523 4.56641 95.9727 4.91016 96.2227C5.25391 96.4648 5.65234 96.6445 6.10547 96.7617C6.56641 96.8789 7.05859 96.9375 7.58203 96.9375C8.26953 96.9375 8.84375 96.8398 9.30469 96.6445C9.77344 96.4492 10.125 96.1758 10.3594 95.8242C10.5938 95.4727 10.7109 95.0664 10.7109 94.6055ZM23.6133 96.0117V86.3203H26.4492V99H23.7773L23.6133 96.0117ZM24.0117 93.375L24.9609 93.3516C24.9609 94.2031 24.8672 94.9883 24.6797 95.707C24.4922 96.418 24.2031 97.0391 23.8125 97.5703C23.4219 98.0938 22.9219 98.5039 22.3125 98.8008C21.7031 99.0898 20.9727 99.2344 20.1211 99.2344C19.5039 99.2344 18.9375 99.1445 18.4219 98.9648C17.9062 98.7852 17.4609 98.5078 17.0859 98.1328C16.7188 97.7578 16.4336 97.2695 16.2305 96.668C16.0273 96.0664 15.9258 95.3477 15.9258 94.5117V86.3203H18.75V94.5352C18.75 94.9961 18.8047 95.3828 18.9141 95.6953C19.0234 96 19.1719 96.2461 19.3594 96.4336C19.5469 96.6211 19.7656 96.7539 20.0156 96.832C20.2656 96.9102 20.5312 96.9492 20.8125 96.9492C21.6172 96.9492 22.25 96.793 22.7109 96.4805C23.1797 96.1602 23.5117 95.7305 23.707 95.1914C23.9102 94.6523 24.0117 94.0469 24.0117 93.375ZM36.457 95.5664C36.457 95.2852 36.3867 95.0312 36.2461 94.8047C36.1055 94.5703 35.8359 94.3594 35.4375 94.1719C35.0469 93.9844 34.4688 93.8125 33.7031 93.6562C33.0312 93.5078 32.4141 93.332 31.8516 93.1289C31.2969 92.918 30.8203 92.6641 30.4219 92.3672C30.0234 92.0703 29.7148 91.7188 29.4961 91.3125C29.2773 90.9062 29.168 90.4375 29.168 89.9062C29.168 89.3906 29.2812 88.9023 29.5078 88.4414C29.7344 87.9805 30.0586 87.5742 30.4805 87.2227C30.9023 86.8711 31.4141 86.5938 32.0156 86.3906C32.625 86.1875 33.3047 86.0859 34.0547 86.0859C35.1172 86.0859 36.0273 86.2656 36.7852 86.625C37.5508 86.9766 38.1367 87.457 38.543 88.0664C38.9492 88.668 39.1523 89.3477 39.1523 90.1055H36.3281C36.3281 89.7695 36.2422 89.457 36.0703 89.168C35.9062 88.8711 35.6562 88.6328 35.3203 88.4531C34.9844 88.2656 34.5625 88.1719 34.0547 88.1719C33.5703 88.1719 33.168 88.25 32.8477 88.4062C32.5352 88.5547 32.3008 88.75 32.1445 88.9922C31.9961 89.2344 31.9219 89.5 31.9219 89.7891C31.9219 90 31.9609 90.1914 32.0391 90.3633C32.125 90.5273 32.2656 90.6797 32.4609 90.8203C32.6562 90.9531 32.9219 91.0781 33.2578 91.1953C33.6016 91.3125 34.0312 91.4258 34.5469 91.5352C35.5156 91.7383 36.3477 92 37.043 92.3203C37.7461 92.6328 38.2852 93.0391 38.6602 93.5391C39.0352 94.0312 39.2227 94.6562 39.2227 95.4141C39.2227 95.9766 39.1016 96.4922 38.8594 96.9609C38.625 97.4219 38.2812 97.8242 37.8281 98.168C37.375 98.5039 36.832 98.7656 36.1992 98.9531C35.5742 99.1406 34.8711 99.2344 34.0898 99.2344C32.9414 99.2344 31.9688 99.0312 31.1719 98.625C30.375 98.2109 29.7695 97.6836 29.3555 97.043C28.9492 96.3945 28.7461 95.7227 28.7461 95.0273H31.4766C31.5078 95.5508 31.6523 95.9688 31.9102 96.2812C32.1758 96.5859 32.5039 96.8086 32.8945 96.9492C33.293 97.082 33.7031 97.1484 34.125 97.1484C34.6328 97.1484 35.0586 97.082 35.4023 96.9492C35.7461 96.8086 36.0078 96.6211 36.1875 96.3867C36.3672 96.1445 36.457 95.8711 36.457 95.5664ZM47.5078 86.3203V88.3828H40.3594V86.3203H47.5078ZM42.4219 83.2148H45.2461V95.4961C45.2461 95.8867 45.3008 96.1875 45.4102 96.3984C45.5273 96.6016 45.6875 96.7383 45.8906 96.8086C46.0938 96.8789 46.332 96.9141 46.6055 96.9141C46.8008 96.9141 46.9883 96.9023 47.168 96.8789C47.3477 96.8555 47.4922 96.832 47.6016 96.8086L47.6133 98.9648C47.3789 99.0352 47.1055 99.0977 46.793 99.1523C46.4883 99.207 46.1367 99.2344 45.7383 99.2344C45.0898 99.2344 44.5156 99.1211 44.0156 98.8945C43.5156 98.6602 43.125 98.2812 42.8438 97.7578C42.5625 97.2344 42.4219 96.5391 42.4219 95.6719V83.2148ZM55.2773 99.2344C54.3398 99.2344 53.4922 99.082 52.7344 98.7773C51.9844 98.4648 51.3438 98.0312 50.8125 97.4766C50.2891 96.9219 49.8867 96.2695 49.6055 95.5195C49.3242 94.7695 49.1836 93.9609 49.1836 93.0938V92.625C49.1836 91.6328 49.3281 90.7344 49.6172 89.9297C49.9062 89.125 50.3086 88.4375 50.8242 87.8672C51.3398 87.2891 51.9492 86.8477 52.6523 86.543C53.3555 86.2383 54.1172 86.0859 54.9375 86.0859C55.8438 86.0859 56.6367 86.2383 57.3164 86.543C57.9961 86.8477 58.5586 87.2773 59.0039 87.832C59.457 88.3789 59.793 89.0312 60.0117 89.7891C60.2383 90.5469 60.3516 91.3828 60.3516 92.2969V93.5039H50.5547V91.4766H57.5625V91.2539C57.5469 90.7461 57.4453 90.2695 57.2578 89.8242C57.0781 89.3789 56.8008 89.0195 56.4258 88.7461C56.0508 88.4727 55.5508 88.3359 54.9258 88.3359C54.457 88.3359 54.0391 88.4375 53.6719 88.6406C53.3125 88.8359 53.0117 89.1211 52.7695 89.4961C52.5273 89.8711 52.3398 90.3242 52.207 90.8555C52.082 91.3789 52.0195 91.9688 52.0195 92.625V93.0938C52.0195 93.6484 52.0938 94.1641 52.2422 94.6406C52.3984 95.1094 52.625 95.5195 52.9219 95.8711C53.2188 96.2227 53.5781 96.5 54 96.7031C54.4219 96.8984 54.9023 96.9961 55.4414 96.9961C56.1211 96.9961 56.7266 96.8594 57.2578 96.5859C57.7891 96.3125 58.25 95.9258 58.6406 95.4258L60.1289 96.8672C59.8555 97.2656 59.5 97.6484 59.0625 98.0156C58.625 98.375 58.0898 98.668 57.457 98.8945C56.832 99.1211 56.1055 99.2344 55.2773 99.2344ZM65.3555 89.0273V99H62.5312V86.3203H65.1914L65.3555 89.0273ZM64.8516 92.1914L63.9375 92.1797C63.9453 91.2812 64.0703 90.457 64.3125 89.707C64.5625 88.957 64.9062 88.3125 65.3438 87.7734C65.7891 87.2344 66.3203 86.8203 66.9375 86.5312C67.5547 86.2344 68.2422 86.0859 69 86.0859C69.6094 86.0859 70.1602 86.1719 70.6523 86.3438C71.1523 86.5078 71.5781 86.7773 71.9297 87.1523C72.2891 87.5273 72.5625 88.0156 72.75 88.6172C72.9375 89.2109 73.0312 89.9414 73.0312 90.8086V99H70.1953V90.7969C70.1953 90.1875 70.1055 89.707 69.9258 89.3555C69.7539 88.9961 69.5 88.7422 69.1641 88.5938C68.8359 88.4375 68.4258 88.3594 67.9336 88.3594C67.4492 88.3594 67.0156 88.4609 66.6328 88.6641C66.25 88.8672 65.9258 89.1445 65.6602 89.4961C65.4023 89.8477 65.2031 90.2539 65.0625 90.7148C64.9219 91.1758 64.8516 91.668 64.8516 92.1914ZM81.7266 86.3203V88.3828H74.5781V86.3203H81.7266ZM76.6406 83.2148H79.4648V95.4961C79.4648 95.8867 79.5195 96.1875 79.6289 96.3984C79.7461 96.6016 79.9062 96.7383 80.1094 96.8086C80.3125 96.8789 80.5508 96.9141 80.8242 96.9141C81.0195 96.9141 81.207 96.9023 81.3867 96.8789C81.5664 96.8555 81.7109 96.832 81.8203 96.8086L81.832 98.9648C81.5977 99.0352 81.3242 99.0977 81.0117 99.1523C80.707 99.207 80.3555 99.2344 79.957 99.2344C79.3086 99.2344 78.7344 99.1211 78.2344 98.8945C77.7344 98.6602 77.3438 98.2812 77.0625 97.7578C76.7812 97.2344 76.6406 96.5391 76.6406 95.6719V83.2148ZM91.0547 96.457V90.4102C91.0547 89.957 90.9727 89.5664 90.8086 89.2383C90.6445 88.9102 90.3945 88.6562 90.0586 88.4766C89.7305 88.2969 89.3164 88.207 88.8164 88.207C88.3555 88.207 87.957 88.2852 87.6211 88.4414C87.2852 88.5977 87.0234 88.8086 86.8359 89.0742C86.6484 89.3398 86.5547 89.6406 86.5547 89.9766H83.7422C83.7422 89.4766 83.8633 88.9922 84.1055 88.5234C84.3477 88.0547 84.6992 87.6367 85.1602 87.2695C85.6211 86.9023 86.1719 86.6133 86.8125 86.4023C87.4531 86.1914 88.1719 86.0859 88.9688 86.0859C89.9219 86.0859 90.7656 86.2461 91.5 86.5664C92.2422 86.8867 92.8242 87.3711 93.2461 88.0195C93.6758 88.6602 93.8906 89.4648 93.8906 90.4336V96.0703C93.8906 96.6484 93.9297 97.168 94.0078 97.6289C94.0938 98.082 94.2148 98.4766 94.3711 98.8125V99H91.4766C91.3438 98.6953 91.2383 98.3086 91.1602 97.8398C91.0898 97.3633 91.0547 96.9023 91.0547 96.457ZM91.4648 91.2891L91.4883 93.0352H89.4609C88.9375 93.0352 88.4766 93.0859 88.0781 93.1875C87.6797 93.2812 87.3477 93.4219 87.082 93.6094C86.8164 93.7969 86.6172 94.0234 86.4844 94.2891C86.3516 94.5547 86.2852 94.8555 86.2852 95.1914C86.2852 95.5273 86.3633 95.8359 86.5195 96.1172C86.6758 96.3906 86.9023 96.6055 87.1992 96.7617C87.5039 96.918 87.8711 96.9961 88.3008 96.9961C88.8789 96.9961 89.3828 96.8789 89.8125 96.6445C90.25 96.4023 90.5938 96.1094 90.8438 95.7656C91.0938 95.4141 91.2266 95.082 91.2422 94.7695L92.1562 96.0234C92.0625 96.3438 91.9023 96.6875 91.6758 97.0547C91.4492 97.4219 91.1523 97.7734 90.7852 98.1094C90.4258 98.4375 89.9922 98.707 89.4844 98.918C88.9844 99.1289 88.4062 99.2344 87.75 99.2344C86.9219 99.2344 86.1836 99.0703 85.5352 98.7422C84.8867 98.4062 84.3789 97.957 84.0117 97.3945C83.6445 96.8242 83.4609 96.1797 83.4609 95.4609C83.4609 94.7891 83.5859 94.1953 83.8359 93.6797C84.0938 93.1562 84.4688 92.7188 84.9609 92.3672C85.4609 92.0156 86.0703 91.75 86.7891 91.5703C87.5078 91.3828 88.3281 91.2891 89.25 91.2891H91.4648ZM96.8555 81H99.6797V96.293L99.4102 99H96.8555V81ZM107.953 92.543V92.7891C107.953 93.7266 107.848 94.5898 107.637 95.3789C107.434 96.1602 107.121 96.8398 106.699 97.418C106.285 97.9961 105.77 98.4453 105.152 98.7656C104.543 99.0781 103.836 99.2344 103.031 99.2344C102.242 99.2344 101.555 99.0859 100.969 98.7891C100.383 98.4922 99.8906 98.0703 99.4922 97.5234C99.1016 96.9766 98.7852 96.3242 98.543 95.5664C98.3008 94.8086 98.1289 93.9727 98.0273 93.0586V92.2734C98.1289 91.3516 98.3008 90.5156 98.543 89.7656C98.7852 89.0078 99.1016 88.3555 99.4922 87.8086C99.8906 87.2539 100.379 86.8281 100.957 86.5312C101.543 86.2344 102.227 86.0859 103.008 86.0859C103.82 86.0859 104.535 86.2422 105.152 86.5547C105.777 86.8672 106.297 87.3125 106.711 87.8906C107.125 88.4609 107.434 89.1406 107.637 89.9297C107.848 90.7188 107.953 91.5898 107.953 92.543ZM105.129 92.7891V92.543C105.129 91.9727 105.082 91.4375 104.988 90.9375C104.895 90.4297 104.738 89.9844 104.52 89.6016C104.309 89.2188 104.02 88.918 103.652 88.6992C103.293 88.4727 102.844 88.3594 102.305 88.3594C101.805 88.3594 101.375 88.4453 101.016 88.6172C100.656 88.7891 100.355 89.0234 100.113 89.3203C99.8711 89.6172 99.6797 89.9609 99.5391 90.3516C99.4062 90.7422 99.3164 91.1641 99.2695 91.6172V93.7383C99.3398 94.3242 99.4883 94.8633 99.7148 95.3555C99.9492 95.8398 100.277 96.2305 100.699 96.5273C101.121 96.8164 101.664 96.9609 102.328 96.9609C102.852 96.9609 103.293 96.8555 103.652 96.6445C104.012 96.4336 104.297 96.1406 104.508 95.7656C104.727 95.3828 104.883 94.9375 104.977 94.4297C105.078 93.9219 105.129 93.375 105.129 92.7891ZM113.367 86.3203V99H110.531V86.3203H113.367ZM110.344 82.9922C110.344 82.5625 110.484 82.207 110.766 81.9258C111.055 81.6367 111.453 81.4922 111.961 81.4922C112.461 81.4922 112.855 81.6367 113.145 81.9258C113.434 82.207 113.578 82.5625 113.578 82.9922C113.578 83.4141 113.434 83.7656 113.145 84.0469C112.855 84.3281 112.461 84.4688 111.961 84.4688C111.453 84.4688 111.055 84.3281 110.766 84.0469C110.484 83.7656 110.344 83.4141 110.344 82.9922ZM119.484 81V99H116.648V81H119.484ZM125.602 86.3203V99H122.766V86.3203H125.602ZM122.578 82.9922C122.578 82.5625 122.719 82.207 123 81.9258C123.289 81.6367 123.688 81.4922 124.195 81.4922C124.695 81.4922 125.09 81.6367 125.379 81.9258C125.668 82.207 125.812 82.5625 125.812 82.9922C125.812 83.4141 125.668 83.7656 125.379 84.0469C125.09 84.3281 124.695 84.4688 124.195 84.4688C123.688 84.4688 123.289 84.3281 123 84.0469C122.719 83.7656 122.578 83.4141 122.578 82.9922ZM136.43 96.375V81H139.266V99H136.699L136.43 96.375ZM128.18 92.8008V92.5547C128.18 91.5938 128.293 90.7188 128.52 89.9297C128.746 89.1328 129.074 88.4492 129.504 87.8789C129.934 87.3008 130.457 86.8594 131.074 86.5547C131.691 86.2422 132.387 86.0859 133.16 86.0859C133.926 86.0859 134.598 86.2344 135.176 86.5312C135.754 86.8281 136.246 87.2539 136.652 87.8086C137.059 88.3555 137.383 89.0117 137.625 89.7773C137.867 90.5352 138.039 91.3789 138.141 92.3086V93.0938C138.039 94 137.867 94.8281 137.625 95.5781C137.383 96.3281 137.059 96.9766 136.652 97.5234C136.246 98.0703 135.75 98.4922 135.164 98.7891C134.586 99.0859 133.91 99.2344 133.137 99.2344C132.371 99.2344 131.68 99.0742 131.062 98.7539C130.453 98.4336 129.934 97.9844 129.504 97.4062C129.074 96.8281 128.746 96.1484 128.52 95.3672C128.293 94.5781 128.18 93.7227 128.18 92.8008ZM131.004 92.5547V92.8008C131.004 93.3789 131.055 93.918 131.156 94.418C131.266 94.918 131.434 95.3594 131.66 95.7422C131.887 96.1172 132.18 96.4141 132.539 96.6328C132.906 96.8438 133.344 96.9492 133.852 96.9492C134.492 96.9492 135.02 96.8086 135.434 96.5273C135.848 96.2461 136.172 95.8672 136.406 95.3906C136.648 94.9062 136.812 94.3672 136.898 93.7734V91.6523C136.852 91.1914 136.754 90.7617 136.605 90.3633C136.465 89.9648 136.273 89.6172 136.031 89.3203C135.789 89.0156 135.488 88.7812 135.129 88.6172C134.777 88.4453 134.359 88.3594 133.875 88.3594C133.359 88.3594 132.922 88.4688 132.562 88.6875C132.203 88.9062 131.906 89.207 131.672 89.5898C131.445 89.9727 131.277 90.418 131.168 90.9258C131.059 91.4336 131.004 91.9766 131.004 92.5547ZM149.367 96.457V90.4102C149.367 89.957 149.285 89.5664 149.121 89.2383C148.957 88.9102 148.707 88.6562 148.371 88.4766C148.043 88.2969 147.629 88.207 147.129 88.207C146.668 88.207 146.27 88.2852 145.934 88.4414C145.598 88.5977 145.336 88.8086 145.148 89.0742C144.961 89.3398 144.867 89.6406 144.867 89.9766H142.055C142.055 89.4766 142.176 88.9922 142.418 88.5234C142.66 88.0547 143.012 87.6367 143.473 87.2695C143.934 86.9023 144.484 86.6133 145.125 86.4023C145.766 86.1914 146.484 86.0859 147.281 86.0859C148.234 86.0859 149.078 86.2461 149.812 86.5664C150.555 86.8867 151.137 87.3711 151.559 88.0195C151.988 88.6602 152.203 89.4648 152.203 90.4336V96.0703C152.203 96.6484 152.242 97.168 152.32 97.6289C152.406 98.082 152.527 98.4766 152.684 98.8125V99H149.789C149.656 98.6953 149.551 98.3086 149.473 97.8398C149.402 97.3633 149.367 96.9023 149.367 96.457ZM149.777 91.2891L149.801 93.0352H147.773C147.25 93.0352 146.789 93.0859 146.391 93.1875C145.992 93.2812 145.66 93.4219 145.395 93.6094C145.129 93.7969 144.93 94.0234 144.797 94.2891C144.664 94.5547 144.598 94.8555 144.598 95.1914C144.598 95.5273 144.676 95.8359 144.832 96.1172C144.988 96.3906 145.215 96.6055 145.512 96.7617C145.816 96.918 146.184 96.9961 146.613 96.9961C147.191 96.9961 147.695 96.8789 148.125 96.6445C148.562 96.4023 148.906 96.1094 149.156 95.7656C149.406 95.4141 149.539 95.082 149.555 94.7695L150.469 96.0234C150.375 96.3438 150.215 96.6875 149.988 97.0547C149.762 97.4219 149.465 97.7734 149.098 98.1094C148.738 98.4375 148.305 98.707 147.797 98.918C147.297 99.1289 146.719 99.2344 146.062 99.2344C145.234 99.2344 144.496 99.0703 143.848 98.7422C143.199 98.4062 142.691 97.957 142.324 97.3945C141.957 96.8242 141.773 96.1797 141.773 95.4609C141.773 94.7891 141.898 94.1953 142.148 93.6797C142.406 93.1562 142.781 92.7188 143.273 92.3672C143.773 92.0156 144.383 91.75 145.102 91.5703C145.82 91.3828 146.641 91.2891 147.562 91.2891H149.777ZM162.891 96.375V81H165.727V99H163.16L162.891 96.375ZM154.641 92.8008V92.5547C154.641 91.5938 154.754 90.7188 154.98 89.9297C155.207 89.1328 155.535 88.4492 155.965 87.8789C156.395 87.3008 156.918 86.8594 157.535 86.5547C158.152 86.2422 158.848 86.0859 159.621 86.0859C160.387 86.0859 161.059 86.2344 161.637 86.5312C162.215 86.8281 162.707 87.2539 163.113 87.8086C163.52 88.3555 163.844 89.0117 164.086 89.7773C164.328 90.5352 164.5 91.3789 164.602 92.3086V93.0938C164.5 94 164.328 94.8281 164.086 95.5781C163.844 96.3281 163.52 96.9766 163.113 97.5234C162.707 98.0703 162.211 98.4922 161.625 98.7891C161.047 99.0859 160.371 99.2344 159.598 99.2344C158.832 99.2344 158.141 99.0742 157.523 98.7539C156.914 98.4336 156.395 97.9844 155.965 97.4062C155.535 96.8281 155.207 96.1484 154.98 95.3672C154.754 94.5781 154.641 93.7227 154.641 92.8008ZM157.465 92.5547V92.8008C157.465 93.3789 157.516 93.918 157.617 94.418C157.727 94.918 157.895 95.3594 158.121 95.7422C158.348 96.1172 158.641 96.4141 159 96.6328C159.367 96.8438 159.805 96.9492 160.312 96.9492C160.953 96.9492 161.48 96.8086 161.895 96.5273C162.309 96.2461 162.633 95.8672 162.867 95.3906C163.109 94.9062 163.273 94.3672 163.359 93.7734V91.6523C163.312 91.1914 163.215 90.7617 163.066 90.3633C162.926 89.9648 162.734 89.6172 162.492 89.3203C162.25 89.0156 161.949 88.7812 161.59 88.6172C161.238 88.4453 160.82 88.3594 160.336 88.3594C159.82 88.3594 159.383 88.4688 159.023 88.6875C158.664 88.9062 158.367 89.207 158.133 89.5898C157.906 89.9727 157.738 90.418 157.629 90.9258C157.52 91.4336 157.465 91.9766 157.465 92.5547ZM174.27 99.2344C173.332 99.2344 172.484 99.082 171.727 98.7773C170.977 98.4648 170.336 98.0312 169.805 97.4766C169.281 96.9219 168.879 96.2695 168.598 95.5195C168.316 94.7695 168.176 93.9609 168.176 93.0938V92.625C168.176 91.6328 168.32 90.7344 168.609 89.9297C168.898 89.125 169.301 88.4375 169.816 87.8672C170.332 87.2891 170.941 86.8477 171.645 86.543C172.348 86.2383 173.109 86.0859 173.93 86.0859C174.836 86.0859 175.629 86.2383 176.309 86.543C176.988 86.8477 177.551 87.2773 177.996 87.832C178.449 88.3789 178.785 89.0312 179.004 89.7891C179.23 90.5469 179.344 91.3828 179.344 92.2969V93.5039H169.547V91.4766H176.555V91.2539C176.539 90.7461 176.438 90.2695 176.25 89.8242C176.07 89.3789 175.793 89.0195 175.418 88.7461C175.043 88.4727 174.543 88.3359 173.918 88.3359C173.449 88.3359 173.031 88.4375 172.664 88.6406C172.305 88.8359 172.004 89.1211 171.762 89.4961C171.52 89.8711 171.332 90.3242 171.199 90.8555C171.074 91.3789 171.012 91.9688 171.012 92.625V93.0938C171.012 93.6484 171.086 94.1641 171.234 94.6406C171.391 95.1094 171.617 95.5195 171.914 95.8711C172.211 96.2227 172.57 96.5 172.992 96.7031C173.414 96.8984 173.895 96.9961 174.434 96.9961C175.113 96.9961 175.719 96.8594 176.25 96.5859C176.781 96.3125 177.242 95.9258 177.633 95.4258L179.121 96.8672C178.848 97.2656 178.492 97.6484 178.055 98.0156C177.617 98.375 177.082 98.668 176.449 98.8945C175.824 99.1211 175.098 99.2344 174.27 99.2344ZM195.246 103.875V88.8398L195.574 86.3203H198.094V103.875H195.246ZM187.008 92.7891V92.543C187.008 91.582 187.117 90.707 187.336 89.918C187.555 89.1211 187.879 88.4375 188.309 87.8672C188.738 87.2969 189.262 86.8594 189.879 86.5547C190.496 86.2422 191.207 86.0859 192.012 86.0859C192.793 86.0859 193.473 86.2344 194.051 86.5312C194.637 86.8281 195.129 87.2539 195.527 87.8086C195.934 88.3555 196.258 89.0078 196.5 89.7656C196.742 90.5234 196.918 91.3672 197.027 92.2969V93.082C196.926 93.9883 196.754 94.8164 196.512 95.5664C196.27 96.3164 195.945 96.9648 195.539 97.5117C195.133 98.0586 194.637 98.4844 194.051 98.7891C193.465 99.0859 192.777 99.2344 191.988 99.2344C191.199 99.2344 190.496 99.0742 189.879 98.7539C189.262 98.4336 188.738 97.9844 188.309 97.4062C187.887 96.8203 187.562 96.1367 187.336 95.3555C187.117 94.5664 187.008 93.7109 187.008 92.7891ZM189.832 92.543V92.7891C189.832 93.3672 189.883 93.9102 189.984 94.418C190.094 94.918 190.266 95.3633 190.5 95.7539C190.734 96.1367 191.031 96.4375 191.391 96.6562C191.75 96.875 192.184 96.9844 192.691 96.9844C193.355 96.9844 193.898 96.8398 194.32 96.5508C194.75 96.2617 195.078 95.875 195.305 95.3906C195.539 94.8984 195.703 94.3555 195.797 93.7617V91.6406C195.742 91.1797 195.645 90.75 195.504 90.3516C195.363 89.9453 195.168 89.5938 194.918 89.2969C194.676 88.9922 194.371 88.7578 194.004 88.5938C193.645 88.4219 193.215 88.3359 192.715 88.3359C192.207 88.3359 191.77 88.4453 191.402 88.6641C191.035 88.8828 190.734 89.1875 190.5 89.5781C190.273 89.9609 190.105 90.4062 189.996 90.9141C189.887 91.4219 189.832 91.9648 189.832 92.543ZM208.746 96.0117V86.3203H211.582V99H208.91L208.746 96.0117ZM209.145 93.375L210.094 93.3516C210.094 94.2031 210 94.9883 209.812 95.707C209.625 96.418 209.336 97.0391 208.945 97.5703C208.555 98.0938 208.055 98.5039 207.445 98.8008C206.836 99.0898 206.105 99.2344 205.254 99.2344C204.637 99.2344 204.07 99.1445 203.555 98.9648C203.039 98.7852 202.594 98.5078 202.219 98.1328C201.852 97.7578 201.566 97.2695 201.363 96.668C201.16 96.0664 201.059 95.3477 201.059 94.5117V86.3203H203.883V94.5352C203.883 94.9961 203.938 95.3828 204.047 95.6953C204.156 96 204.305 96.2461 204.492 96.4336C204.68 96.6211 204.898 96.7539 205.148 96.832C205.398 96.9102 205.664 96.9492 205.945 96.9492C206.75 96.9492 207.383 96.793 207.844 96.4805C208.312 96.1602 208.645 95.7305 208.84 95.1914C209.043 94.6523 209.145 94.0469 209.145 93.375ZM220.066 99.2344C219.129 99.2344 218.281 99.082 217.523 98.7773C216.773 98.4648 216.133 98.0312 215.602 97.4766C215.078 96.9219 214.676 96.2695 214.395 95.5195C214.113 94.7695 213.973 93.9609 213.973 93.0938V92.625C213.973 91.6328 214.117 90.7344 214.406 89.9297C214.695 89.125 215.098 88.4375 215.613 87.8672C216.129 87.2891 216.738 86.8477 217.441 86.543C218.145 86.2383 218.906 86.0859 219.727 86.0859C220.633 86.0859 221.426 86.2383 222.105 86.543C222.785 86.8477 223.348 87.2773 223.793 87.832C224.246 88.3789 224.582 89.0312 224.801 89.7891C225.027 90.5469 225.141 91.3828 225.141 92.2969V93.5039H215.344V91.4766H222.352V91.2539C222.336 90.7461 222.234 90.2695 222.047 89.8242C221.867 89.3789 221.59 89.0195 221.215 88.7461C220.84 88.4727 220.34 88.3359 219.715 88.3359C219.246 88.3359 218.828 88.4375 218.461 88.6406C218.102 88.8359 217.801 89.1211 217.559 89.4961C217.316 89.8711 217.129 90.3242 216.996 90.8555C216.871 91.3789 216.809 91.9688 216.809 92.625V93.0938C216.809 93.6484 216.883 94.1641 217.031 94.6406C217.188 95.1094 217.414 95.5195 217.711 95.8711C218.008 96.2227 218.367 96.5 218.789 96.7031C219.211 96.8984 219.691 96.9961 220.23 96.9961C220.91 96.9961 221.516 96.8594 222.047 96.5859C222.578 96.3125 223.039 95.9258 223.43 95.4258L224.918 96.8672C224.645 97.2656 224.289 97.6484 223.852 98.0156C223.414 98.375 222.879 98.668 222.246 98.8945C221.621 99.1211 220.895 99.2344 220.066 99.2344ZM239.133 86.3203V88.3828H231.984V86.3203H239.133ZM234.047 83.2148H236.871V95.4961C236.871 95.8867 236.926 96.1875 237.035 96.3984C237.152 96.6016 237.312 96.7383 237.516 96.8086C237.719 96.8789 237.957 96.9141 238.23 96.9141C238.426 96.9141 238.613 96.9023 238.793 96.8789C238.973 96.8555 239.117 96.832 239.227 96.8086L239.238 98.9648C239.004 99.0352 238.73 99.0977 238.418 99.1523C238.113 99.207 237.762 99.2344 237.363 99.2344C236.715 99.2344 236.141 99.1211 235.641 98.8945C235.141 98.6602 234.75 98.2812 234.469 97.7578C234.188 97.2344 234.047 96.5391 234.047 95.6719V83.2148ZM244.148 88.7344V99H241.324V86.3203H244.02L244.148 88.7344ZM248.027 86.2383L248.004 88.8633C247.832 88.832 247.645 88.8086 247.441 88.793C247.246 88.7773 247.051 88.7695 246.855 88.7695C246.371 88.7695 245.945 88.8398 245.578 88.9805C245.211 89.1133 244.902 89.3086 244.652 89.5664C244.41 89.8164 244.223 90.1211 244.09 90.4805C243.957 90.8398 243.879 91.2422 243.855 91.6875L243.211 91.7344C243.211 90.9375 243.289 90.1992 243.445 89.5195C243.602 88.8398 243.836 88.2422 244.148 87.7266C244.469 87.2109 244.867 86.8086 245.344 86.5195C245.828 86.2305 246.387 86.0859 247.02 86.0859C247.191 86.0859 247.375 86.1016 247.57 86.1328C247.773 86.1641 247.926 86.1992 248.027 86.2383ZM256.523 96.457V90.4102C256.523 89.957 256.441 89.5664 256.277 89.2383C256.113 88.9102 255.863 88.6562 255.527 88.4766C255.199 88.2969 254.785 88.207 254.285 88.207C253.824 88.207 253.426 88.2852 253.09 88.4414C252.754 88.5977 252.492 88.8086 252.305 89.0742C252.117 89.3398 252.023 89.6406 252.023 89.9766H249.211C249.211 89.4766 249.332 88.9922 249.574 88.5234C249.816 88.0547 250.168 87.6367 250.629 87.2695C251.09 86.9023 251.641 86.6133 252.281 86.4023C252.922 86.1914 253.641 86.0859 254.438 86.0859C255.391 86.0859 256.234 86.2461 256.969 86.5664C257.711 86.8867 258.293 87.3711 258.715 88.0195C259.145 88.6602 259.359 89.4648 259.359 90.4336V96.0703C259.359 96.6484 259.398 97.168 259.477 97.6289C259.562 98.082 259.684 98.4766 259.84 98.8125V99H256.945C256.812 98.6953 256.707 98.3086 256.629 97.8398C256.559 97.3633 256.523 96.9023 256.523 96.457ZM256.934 91.2891L256.957 93.0352H254.93C254.406 93.0352 253.945 93.0859 253.547 93.1875C253.148 93.2812 252.816 93.4219 252.551 93.6094C252.285 93.7969 252.086 94.0234 251.953 94.2891C251.82 94.5547 251.754 94.8555 251.754 95.1914C251.754 95.5273 251.832 95.8359 251.988 96.1172C252.145 96.3906 252.371 96.6055 252.668 96.7617C252.973 96.918 253.34 96.9961 253.77 96.9961C254.348 96.9961 254.852 96.8789 255.281 96.6445C255.719 96.4023 256.062 96.1094 256.312 95.7656C256.562 95.4141 256.695 95.082 256.711 94.7695L257.625 96.0234C257.531 96.3438 257.371 96.6875 257.145 97.0547C256.918 97.4219 256.621 97.7734 256.254 98.1094C255.895 98.4375 255.461 98.707 254.953 98.918C254.453 99.1289 253.875 99.2344 253.219 99.2344C252.391 99.2344 251.652 99.0703 251.004 98.7422C250.355 98.4062 249.848 97.957 249.48 97.3945C249.113 96.8242 248.93 96.1797 248.93 95.4609C248.93 94.7891 249.055 94.1953 249.305 93.6797C249.562 93.1562 249.938 92.7188 250.43 92.3672C250.93 92.0156 251.539 91.75 252.258 91.5703C252.977 91.3828 253.797 91.2891 254.719 91.2891H256.934ZM265.113 89.0273V99H262.289V86.3203H264.949L265.113 89.0273ZM264.609 92.1914L263.695 92.1797C263.703 91.2812 263.828 90.457 264.07 89.707C264.32 88.957 264.664 88.3125 265.102 87.7734C265.547 87.2344 266.078 86.8203 266.695 86.5312C267.312 86.2344 268 86.0859 268.758 86.0859C269.367 86.0859 269.918 86.1719 270.41 86.3438C270.91 86.5078 271.336 86.7773 271.688 87.1523C272.047 87.5273 272.32 88.0156 272.508 88.6172C272.695 89.2109 272.789 89.9414 272.789 90.8086V99H269.953V90.7969C269.953 90.1875 269.863 89.707 269.684 89.3555C269.512 88.9961 269.258 88.7422 268.922 88.5938C268.594 88.4375 268.184 88.3594 267.691 88.3594C267.207 88.3594 266.773 88.4609 266.391 88.6641C266.008 88.8672 265.684 89.1445 265.418 89.4961C265.16 89.8477 264.961 90.2539 264.82 90.7148C264.68 91.1758 264.609 91.668 264.609 92.1914ZM282.785 95.5664C282.785 95.2852 282.715 95.0312 282.574 94.8047C282.434 94.5703 282.164 94.3594 281.766 94.1719C281.375 93.9844 280.797 93.8125 280.031 93.6562C279.359 93.5078 278.742 93.332 278.18 93.1289C277.625 92.918 277.148 92.6641 276.75 92.3672C276.352 92.0703 276.043 91.7188 275.824 91.3125C275.605 90.9062 275.496 90.4375 275.496 89.9062C275.496 89.3906 275.609 88.9023 275.836 88.4414C276.062 87.9805 276.387 87.5742 276.809 87.2227C277.23 86.8711 277.742 86.5938 278.344 86.3906C278.953 86.1875 279.633 86.0859 280.383 86.0859C281.445 86.0859 282.355 86.2656 283.113 86.625C283.879 86.9766 284.465 87.457 284.871 88.0664C285.277 88.668 285.48 89.3477 285.48 90.1055H282.656C282.656 89.7695 282.57 89.457 282.398 89.168C282.234 88.8711 281.984 88.6328 281.648 88.4531C281.312 88.2656 280.891 88.1719 280.383 88.1719C279.898 88.1719 279.496 88.25 279.176 88.4062C278.863 88.5547 278.629 88.75 278.473 88.9922C278.324 89.2344 278.25 89.5 278.25 89.7891C278.25 90 278.289 90.1914 278.367 90.3633C278.453 90.5273 278.594 90.6797 278.789 90.8203C278.984 90.9531 279.25 91.0781 279.586 91.1953C279.93 91.3125 280.359 91.4258 280.875 91.5352C281.844 91.7383 282.676 92 283.371 92.3203C284.074 92.6328 284.613 93.0391 284.988 93.5391C285.363 94.0312 285.551 94.6562 285.551 95.4141C285.551 95.9766 285.43 96.4922 285.188 96.9609C284.953 97.4219 284.609 97.8242 284.156 98.168C283.703 98.5039 283.16 98.7656 282.527 98.9531C281.902 99.1406 281.199 99.2344 280.418 99.2344C279.27 99.2344 278.297 99.0312 277.5 98.625C276.703 98.2109 276.098 97.6836 275.684 97.043C275.277 96.3945 275.074 95.7227 275.074 95.0273H277.805C277.836 95.5508 277.98 95.9688 278.238 96.2812C278.504 96.5859 278.832 96.8086 279.223 96.9492C279.621 97.082 280.031 97.1484 280.453 97.1484C280.961 97.1484 281.387 97.082 281.73 96.9492C282.074 96.8086 282.336 96.6211 282.516 96.3867C282.695 96.1445 282.785 95.8711 282.785 95.5664ZM291.844 99H289.02V85.1016C289.02 84.1562 289.195 83.3633 289.547 82.7227C289.906 82.0742 290.418 81.5859 291.082 81.2578C291.746 80.9219 292.531 80.7539 293.438 80.7539C293.719 80.7539 293.996 80.7734 294.27 80.8125C294.543 80.8438 294.809 80.8945 295.066 80.9648L294.996 83.1445C294.84 83.1055 294.668 83.0781 294.48 83.0625C294.301 83.0469 294.105 83.0391 293.895 83.0391C293.465 83.0391 293.094 83.1211 292.781 83.2852C292.477 83.4414 292.242 83.6719 292.078 83.9766C291.922 84.2812 291.844 84.6562 291.844 85.1016V99ZM294.457 86.3203V88.3828H287.074V86.3203H294.457ZM295.969 92.8008V92.5312C295.969 91.6172 296.102 90.7695 296.367 89.9883C296.633 89.1992 297.016 88.5156 297.516 87.9375C298.023 87.3516 298.641 86.8984 299.367 86.5781C300.102 86.25 300.93 86.0859 301.852 86.0859C302.781 86.0859 303.609 86.25 304.336 86.5781C305.07 86.8984 305.691 87.3516 306.199 87.9375C306.707 88.5156 307.094 89.1992 307.359 89.9883C307.625 90.7695 307.758 91.6172 307.758 92.5312V92.8008C307.758 93.7148 307.625 94.5625 307.359 95.3438C307.094 96.125 306.707 96.8086 306.199 97.3945C305.691 97.9727 305.074 98.4258 304.348 98.7539C303.621 99.0742 302.797 99.2344 301.875 99.2344C300.945 99.2344 300.113 99.0742 299.379 98.7539C298.652 98.4258 298.035 97.9727 297.527 97.3945C297.02 96.8086 296.633 96.125 296.367 95.3438C296.102 94.5625 295.969 93.7148 295.969 92.8008ZM298.793 92.5312V92.8008C298.793 93.3711 298.852 93.9102 298.969 94.418C299.086 94.9258 299.27 95.3711 299.52 95.7539C299.77 96.1367 300.09 96.4375 300.48 96.6562C300.871 96.875 301.336 96.9844 301.875 96.9844C302.398 96.9844 302.852 96.875 303.234 96.6562C303.625 96.4375 303.945 96.1367 304.195 95.7539C304.445 95.3711 304.629 94.9258 304.746 94.418C304.871 93.9102 304.934 93.3711 304.934 92.8008V92.5312C304.934 91.9688 304.871 91.4375 304.746 90.9375C304.629 90.4297 304.441 89.9805 304.184 89.5898C303.934 89.1992 303.613 88.8945 303.223 88.6758C302.84 88.4492 302.383 88.3359 301.852 88.3359C301.32 88.3359 300.859 88.4492 300.469 88.6758C300.086 88.8945 299.77 89.1992 299.52 89.5898C299.27 89.9805 299.086 90.4297 298.969 90.9375C298.852 91.4375 298.793 91.9688 298.793 92.5312ZM312.961 88.7344V99H310.137V86.3203H312.832L312.961 88.7344ZM316.84 86.2383L316.816 88.8633C316.645 88.832 316.457 88.8086 316.254 88.793C316.059 88.7773 315.863 88.7695 315.668 88.7695C315.184 88.7695 314.758 88.8398 314.391 88.9805C314.023 89.1133 313.715 89.3086 313.465 89.5664C313.223 89.8164 313.035 90.1211 312.902 90.4805C312.77 90.8398 312.691 91.2422 312.668 91.6875L312.023 91.7344C312.023 90.9375 312.102 90.1992 312.258 89.5195C312.414 88.8398 312.648 88.2422 312.961 87.7266C313.281 87.2109 313.68 86.8086 314.156 86.5195C314.641 86.2305 315.199 86.0859 315.832 86.0859C316.004 86.0859 316.188 86.1016 316.383 86.1328C316.586 86.1641 316.738 86.1992 316.84 86.2383ZM321.434 88.8984V99H318.609V86.3203H321.27L321.434 88.8984ZM320.977 92.1914L320.016 92.1797C320.016 91.3047 320.125 90.4961 320.344 89.7539C320.562 89.0117 320.883 88.3672 321.305 87.8203C321.727 87.2656 322.25 86.8398 322.875 86.543C323.508 86.2383 324.238 86.0859 325.066 86.0859C325.645 86.0859 326.172 86.1719 326.648 86.3438C327.133 86.5078 327.551 86.7695 327.902 87.1289C328.262 87.4883 328.535 87.9492 328.723 88.5117C328.918 89.0742 329.016 89.7539 329.016 90.5508V99H326.191V90.7969C326.191 90.1797 326.098 89.6953 325.91 89.3438C325.73 88.9922 325.469 88.7422 325.125 88.5938C324.789 88.4375 324.387 88.3594 323.918 88.3594C323.387 88.3594 322.934 88.4609 322.559 88.6641C322.191 88.8672 321.891 89.1445 321.656 89.4961C321.422 89.8477 321.25 90.2539 321.141 90.7148C321.031 91.1758 320.977 91.668 320.977 92.1914ZM328.84 91.4414L327.516 91.7344C327.516 90.9688 327.621 90.2461 327.832 89.5664C328.051 88.8789 328.367 88.2773 328.781 87.7617C329.203 87.2383 329.723 86.8281 330.34 86.5312C330.957 86.2344 331.664 86.0859 332.461 86.0859C333.109 86.0859 333.688 86.1758 334.195 86.3555C334.711 86.5273 335.148 86.8008 335.508 87.1758C335.867 87.5508 336.141 88.0391 336.328 88.6406C336.516 89.2344 336.609 89.9531 336.609 90.7969V99H333.773V90.7852C333.773 90.1445 333.68 89.6484 333.492 89.2969C333.312 88.9453 333.055 88.7031 332.719 88.5703C332.383 88.4297 331.98 88.3594 331.512 88.3594C331.074 88.3594 330.688 88.4414 330.352 88.6055C330.023 88.7617 329.746 88.9844 329.52 89.2734C329.293 89.5547 329.121 89.8789 329.004 90.2461C328.895 90.6133 328.84 91.0117 328.84 91.4414ZM346.664 96.457V90.4102C346.664 89.957 346.582 89.5664 346.418 89.2383C346.254 88.9102 346.004 88.6562 345.668 88.4766C345.34 88.2969 344.926 88.207 344.426 88.207C343.965 88.207 343.566 88.2852 343.23 88.4414C342.895 88.5977 342.633 88.8086 342.445 89.0742C342.258 89.3398 342.164 89.6406 342.164 89.9766H339.352C339.352 89.4766 339.473 88.9922 339.715 88.5234C339.957 88.0547 340.309 87.6367 340.77 87.2695C341.23 86.9023 341.781 86.6133 342.422 86.4023C343.062 86.1914 343.781 86.0859 344.578 86.0859C345.531 86.0859 346.375 86.2461 347.109 86.5664C347.852 86.8867 348.434 87.3711 348.855 88.0195C349.285 88.6602 349.5 89.4648 349.5 90.4336V96.0703C349.5 96.6484 349.539 97.168 349.617 97.6289C349.703 98.082 349.824 98.4766 349.98 98.8125V99H347.086C346.953 98.6953 346.848 98.3086 346.77 97.8398C346.699 97.3633 346.664 96.9023 346.664 96.457ZM347.074 91.2891L347.098 93.0352H345.07C344.547 93.0352 344.086 93.0859 343.688 93.1875C343.289 93.2812 342.957 93.4219 342.691 93.6094C342.426 93.7969 342.227 94.0234 342.094 94.2891C341.961 94.5547 341.895 94.8555 341.895 95.1914C341.895 95.5273 341.973 95.8359 342.129 96.1172C342.285 96.3906 342.512 96.6055 342.809 96.7617C343.113 96.918 343.48 96.9961 343.91 96.9961C344.488 96.9961 344.992 96.8789 345.422 96.6445C345.859 96.4023 346.203 96.1094 346.453 95.7656C346.703 95.4141 346.836 95.082 346.852 94.7695L347.766 96.0234C347.672 96.3438 347.512 96.6875 347.285 97.0547C347.059 97.4219 346.762 97.7734 346.395 98.1094C346.035 98.4375 345.602 98.707 345.094 98.918C344.594 99.1289 344.016 99.2344 343.359 99.2344C342.531 99.2344 341.793 99.0703 341.145 98.7422C340.496 98.4062 339.988 97.957 339.621 97.3945C339.254 96.8242 339.07 96.1797 339.07 95.4609C339.07 94.7891 339.195 94.1953 339.445 93.6797C339.703 93.1562 340.078 92.7188 340.57 92.3672C341.07 92.0156 341.68 91.75 342.398 91.5703C343.117 91.3828 343.938 91.2891 344.859 91.2891H347.074ZM352.57 97.5938C352.57 97.1562 352.719 96.7891 353.016 96.4922C353.312 96.1875 353.715 96.0352 354.223 96.0352C354.738 96.0352 355.141 96.1875 355.43 96.4922C355.727 96.7891 355.875 97.1562 355.875 97.5938C355.875 98.0312 355.727 98.3984 355.43 98.6953C355.141 98.9922 354.738 99.1406 354.223 99.1406C353.715 99.1406 353.312 98.9922 353.016 98.6953C352.719 98.3984 352.57 98.0312 352.57 97.5938Z" fill="white"/>
<path d="M57 0H150V8H57V0Z" fill="white"/>
</svg>
